<svg version="1.1" id="Layer_1" xmlns="http://www.w3.org/2000/svg" xmlns:xlink="http://www.w3.org/1999/xlink" x="0px" y="0px"
	 width="100%" viewBox="0 0 1024 1024" enable-background="new 0 0 1024 1024" xml:space="preserve">
<path fill="#000000" opacity="1.000000" stroke="none" 
	d="
M681.000000,310.694397 
	C753.150085,310.693176 824.800171,310.655426 896.450256,310.709076 
	C926.051819,310.731232 950.593750,329.465485 958.543274,357.887726 
	C960.348206,364.340973 961.071777,370.969543 961.074829,377.631805 
	C961.117493,470.776733 961.174500,563.921692 961.064331,657.066528 
	C961.020752,693.933777 932.391846,722.143005 895.529907,722.143433 
	C797.386292,722.144592 699.242676,722.186401 601.099060,722.164246 
	C571.070435,722.157410 545.254150,702.251892 538.268677,673.862061 
	C537.193848,669.493896 536.522949,665.075623 536.588562,660.531677 
	C536.961304,634.718079 536.336853,608.904053 536.324951,583.089783 
	C536.312317,555.622925 536.496033,528.146790 536.171570,500.674469 
	C535.870605,475.193573 535.768066,449.700897 536.198486,424.223907 
	C536.505127,406.077942 535.451965,387.945099 536.546631,369.786438 
	C538.251038,341.513733 561.112122,315.929016 589.093384,311.640991 
	C593.560913,310.956360 598.015320,310.687164 602.520325,310.691650 
	C628.513550,310.717499 654.506775,310.698517 681.000000,310.694397 
M880.499451,686.685852 
	C884.999512,686.684448 889.499695,686.693848 893.999695,686.679871 
	C913.864502,686.618164 925.703064,674.820740 925.709229,654.894409 
	C925.737549,562.899231 925.726379,470.904053 925.725281,378.908875 
	C925.725037,357.661774 914.244995,345.979187 893.124817,345.973480 
	C795.964417,345.947235 698.804077,345.973938 601.643677,345.981384 
	C597.796997,345.981659 594.005371,346.222382 590.343811,347.631317 
	C578.665833,352.124908 571.479614,362.642731 571.456177,376.163086 
	C571.427246,392.820129 571.855408,409.477753 571.851562,426.135101 
	C571.846497,448.128113 571.779175,470.120880 571.584656,492.114990 
	C571.324036,521.598572 571.577698,551.093384 571.640076,580.580078 
	C571.691833,605.062439 571.876221,629.563477 571.357300,654.049011 
	C570.881897,676.484131 587.998413,686.973083 604.015015,686.898987 
	C695.841614,686.474121 787.671204,686.688293 880.499451,686.685852 
z"/>
<path fill="#000000" opacity="1.000000" stroke="none" 
	d="
M204.000061,310.704224 
	C276.985016,310.702911 349.469940,310.679291 421.954895,310.711182 
	C454.611481,310.725555 479.709045,331.033325 486.604523,362.941986 
	C487.625824,367.667969 488.022400,372.491119 488.022949,377.322052 
	C488.033173,469.968903 488.075867,562.615845 487.984375,655.262634 
	C487.951843,688.198914 468.339874,713.098633 436.924194,720.549683 
	C432.052948,721.704956 427.071533,722.146667 422.058899,722.146912 
	C324.412872,722.151428 226.766769,722.219849 129.120819,722.125183 
	C97.068176,722.094116 71.536415,701.243469 65.221733,670.240906 
	C64.331680,665.871033 64.013725,661.314819 64.010445,656.844421 
	C63.942013,563.530884 63.930641,470.217255 63.970459,376.903656 
	C63.984344,344.364838 82.410568,320.299042 113.181183,312.420074 
	C118.198143,311.135468 123.323120,310.665436 128.514420,310.674652 
	C153.509567,310.718964 178.504837,310.700623 204.000061,310.704224 
M452.652527,586.500061 
	C452.652313,585.500549 452.651886,584.500977 452.651947,583.501465 
	C452.656219,514.853394 452.671661,446.205353 452.656097,377.557281 
	C452.652679,362.425629 444.374054,350.844421 430.935486,346.949005 
	C426.365112,345.624207 421.676575,346.027771 417.029968,346.025635 
	C321.723328,345.982208 226.416656,345.993347 131.110046,345.929657 
	C111.215309,345.916351 99.350174,357.537537 99.346298,377.475525 
	C99.328239,470.283844 99.326035,563.092163 99.332726,655.900513 
	C99.334045,674.237976 111.693855,686.668762 130.005020,686.672546 
	C227.145523,686.692627 324.286011,686.683105 421.426514,686.665344 
	C423.417084,686.664978 425.445007,686.646545 427.392212,686.290527 
	C442.851624,683.463257 452.527832,671.585938 452.621826,654.981750 
	C452.749176,632.488525 452.652802,609.994080 452.652527,586.500061 
z"/>
<path fill="#000000" opacity="1.000000" stroke="none" 
	d="
M834.000000,498.941040 
	C844.493958,498.951569 854.495667,498.721100 864.479858,499.038544 
	C875.554688,499.390656 881.991211,508.922729 878.089355,518.751038 
	C875.810364,524.491333 871.411499,527.296387 865.293396,527.342773 
	C855.966003,527.413513 846.638000,527.420532 837.310242,527.418274 
	C770.516235,527.402344 703.722290,527.390381 636.928284,527.340820 
	C626.834778,527.333313 621.144592,521.491577 621.675537,511.930664 
	C622.018921,505.747253 626.074463,500.999908 632.163879,499.569641 
	C635.618042,498.758301 639.121704,498.958527 642.612305,498.957733 
	C706.241516,498.943176 769.870789,498.944092 834.000000,498.941040 
z"/>
<path fill="#000000" opacity="1.000000" stroke="none" 
	d="
M724.999878,607.420166 
	C694.865417,607.402710 665.230835,607.421387 635.596619,607.341614 
	C628.353394,607.322083 623.127930,602.841370 621.886841,596.002197 
	C620.720520,589.575073 624.218689,583.270874 630.297485,580.560120 
	C632.695862,579.490479 635.172363,579.605652 637.652527,579.602661 
	C660.611877,579.574768 683.571289,579.566223 706.530640,579.571472 
	C731.991394,579.577271 757.452148,579.625305 782.912903,579.603821 
	C788.601135,579.598999 792.928101,581.904663 795.609436,586.889648 
	C798.283875,591.861938 797.881714,596.842102 794.856628,601.571777 
	C792.083008,605.908264 788.001465,607.468994 782.937561,607.444641 
	C763.792114,607.352844 744.645813,607.415283 724.999878,607.420166 
z"/>
<path fill="#000000" opacity="1.000000" stroke="none" 
	d="
M698.000000,418.860291 
	C716.150452,418.875488 733.801392,418.826874 751.451233,418.937103 
	C759.785156,418.989136 764.808960,422.113312 767.070801,428.191437 
	C770.589111,437.645996 764.153076,447.120697 753.799072,447.259644 
	C739.148376,447.456238 724.493164,447.328827 709.839905,447.327454 
	C685.362305,447.325165 660.884155,447.400208 636.407227,447.266632 
	C624.863098,447.203644 618.005127,435.563751 623.586548,425.784607 
	C626.539490,420.610779 631.334717,418.817871 637.055115,418.826874 
	C657.203430,418.858612 677.351685,418.852997 698.000000,418.860291 
z"/>
<path fill="#000000" opacity="1.000000" stroke="none" 
	d="
M280.999878,527.401062 
	C241.848068,527.389832 203.196228,527.402405 164.544479,527.344910 
	C157.466827,527.334351 151.954529,522.878418 150.819855,516.600403 
	C149.492233,509.254883 152.755081,502.850677 159.219040,500.226929 
	C161.726486,499.209137 164.385818,499.002563 167.068710,499.003082 
	C242.206406,499.017426 317.344116,498.997620 392.481750,499.070129 
	C405.274597,499.082458 412.745331,508.877533 408.103485,519.191284 
	C405.363342,525.279541 400.370239,527.395691 393.957031,527.387756 
	C356.471375,527.341492 318.985626,527.386536 280.999878,527.401062 
z"/>
<path fill="#000000" opacity="1.000000" stroke="none" 
	d="
M151.346924,588.922852 
	C153.950790,582.451355 158.387741,579.552917 165.025009,579.561707 
	C215.836456,579.629089 266.648010,579.598267 317.459534,579.641113 
	C325.955536,579.648254 331.511719,585.327759 331.520874,593.754089 
	C331.529968,602.119934 326.045380,607.375366 317.114868,607.378662 
	C266.802979,607.397217 216.491074,607.399597 166.179214,607.365723 
	C154.608749,607.357910 149.326996,600.909729 151.346924,588.922852 
z"/>
<path fill="#000000" opacity="1.000000" stroke="none" 
	d="
M232.000092,418.839722 
	C250.146088,418.841736 267.792572,418.765472 285.437897,418.874207 
	C296.194702,418.940491 302.953949,427.284882 300.337311,436.954376 
	C298.661591,443.146881 293.732788,447.266724 287.259888,447.278168 
	C246.308060,447.350403 205.355972,447.365601 164.404190,447.283905 
	C156.190903,447.267548 150.723938,441.449890 150.682434,433.298462 
	C150.638504,424.670105 156.094849,418.974548 165.078491,418.908264 
	C185.719879,418.755890 206.363052,418.842041 227.005493,418.832123 
	C228.503693,418.831390 230.001892,418.836884 232.000092,418.839722 
z"/>
</svg>